<?xml version="1.0" standalone="no"?>
 <!DOCTYPE svg PUBLIC "-//W3C//DTD SVG 1.1//EN" 
 "http://www.w3.org/Graphics/SVG/1.1/DTD/svg11.dtd"> 
<svg
  xmlns:svg="http://www.w3.org/2000/svg"
  xmlns="http://www.w3.org/2000/svg"
  xmlns:xlink="http://www.w3.org/1999/xlink"
  version="1.1"
  width="27.940000cm" height="21.590000cm" viewBox="0 0 110000 85000">
<title>SVG Picture created as stompbox.svg date 2021/04/10 01:08:17 </title>
  <desc>Picture generated by Eeschema-SVG </desc>
<g style="fill:#000000; fill-opacity:1;stroke:#000000; stroke-opacity:1;
stroke-linecap:round; stroke-linejoin:round;"
 transform="translate(0 0) scale(1 1)">
</g>
<g style="fill:#000000; fill-opacity:0.0; 
stroke:#000000; stroke-width:0; stroke-opacity:1; 
stroke-linecap:round; stroke-linejoin:round;">
<g >
</g>
<g style="fill:#840000; fill-opacity:0.0; 
stroke:#840000; stroke-width:0; stroke-opacity:1; 
stroke-linecap:round; stroke-linejoin:round;">
</g>
<g style="fill:#840000; fill-opacity:1.0; 
stroke:#840000; stroke-width:60; stroke-opacity:1; 
stroke-linecap:round; stroke-linejoin:round;">
<rect x="29700" y="34050" width="1600" height="100" rx="0" />
<rect x="29700" y="32800" width="1600" height="100" rx="0" />
<rect x="29980" y="34280" width="1020" height="200" rx="0" />
<rect x="29980" y="33030" width="1020" height="200" rx="0" />
</g>
<g style="fill:#840000; fill-opacity:0.0; 
stroke:#840000; stroke-width:60; stroke-opacity:1; 
stroke-linecap:round; stroke-linejoin:round;">
<path style="fill:#840000; fill-opacity:0.0; 
stroke:#840000; stroke-width:60; stroke-opacity:1; 
stroke-linecap:round; stroke-linejoin:round;fill:none"
d="M 30500,34100
30500,34000
" /> 
<path style="fill:#840000; fill-opacity:0.0; 
stroke:#840000; stroke-width:60; stroke-opacity:1; 
stroke-linecap:round; stroke-linejoin:round;fill:none"
d="M 30500,33900
30500,33800
" /> 
<path style="fill:#840000; fill-opacity:0.0; 
stroke:#840000; stroke-width:60; stroke-opacity:1; 
stroke-linecap:round; stroke-linejoin:round;fill:none"
d="M 30500,33700
30500,33600
" /> 
<path style="fill:#840000; fill-opacity:0.0; 
stroke:#840000; stroke-width:60; stroke-opacity:1; 
stroke-linecap:round; stroke-linejoin:round;fill:none"
d="M 30500,33500
30500,33400
" /> 
<path style="fill:#840000; fill-opacity:0.0; 
stroke:#840000; stroke-width:60; stroke-opacity:1; 
stroke-linecap:round; stroke-linejoin:round;fill:none"
d="M 30500,33300
30500,33200
" /> 
<path style="fill:#840000; fill-opacity:0.0; 
stroke:#840000; stroke-width:60; stroke-opacity:1; 
stroke-linecap:round; stroke-linejoin:round;fill:none"
d="M 30500,32800
30500,32500
" /> 
</g>
<g style="fill:#840000; fill-opacity:0.0; 
stroke:#840000; stroke-width:100; stroke-opacity:1; 
stroke-linecap:round; stroke-linejoin:round;">
<path style="fill:#840000; fill-opacity:0.0; 
stroke:#840000; stroke-width:100; stroke-opacity:1; 
stroke-linecap:round; stroke-linejoin:round;fill:none"
d="M 30600,32450
31000,32450
" /> 
<path style="fill:#840000; fill-opacity:0.0; 
stroke:#840000; stroke-width:100; stroke-opacity:1; 
stroke-linecap:round; stroke-linejoin:round;fill:none"
d="M 30800,32250
30800,32650
" /> 
</g>
<g style="fill:#840000; fill-opacity:0.0; 
stroke:#840000; stroke-width:60; stroke-opacity:1; 
stroke-linecap:round; stroke-linejoin:round;">
<path d="M30500 32500
L30500 31500
" />
<path d="M30500 34500
L30500 35500
" />
</g>
<g style="fill:#008484; fill-opacity:0.0; 
stroke:#008484; stroke-width:60; stroke-opacity:1; 
stroke-linecap:round; stroke-linejoin:round;">
<text x="32290" y="33310"
textLength="1420" font-size="660" lengthAdjust="spacingAndGlyphs"
text-anchor="middle" opacity="0">BT1</text>
<path d="M31890 33020
L31960 33040
L31990 33070
L32010 33110
L32010 33190
L31990 33230
L31960 33260
L31920 33280
L31730 33280
L31730 32780
L31890 32780
L31940 32810
L31960 32830
L31990 32880
L31990 32920
L31960 32970
L31940 33000
L31890 33020
L31730 33020
" />
<path d="M32150 32780
L32440 32780
" />
<path d="M32300 33280
L32300 32780
" />
<path d="M32870 33280
L32580 33280
" />
<path d="M32730 33280
L32730 32780
L32680 32850
L32630 32900
L32580 32920
" />
<text x="32060" y="34220"
textLength="960" font-size="660" lengthAdjust="spacingAndGlyphs"
text-anchor="middle" opacity="0">9V</text>
<path d="M31750 34190
L31840 34190
L31890 34170
L31910 34140
L31960 34070
L31980 33980
L31980 33790
L31960 33740
L31940 33720
L31890 33690
L31790 33690
L31750 33720
L31720 33740
L31700 33790
L31700 33910
L31720 33950
L31750 33980
L31790 34000
L31890 34000
L31940 33980
L31960 33950
L31980 33910
" />
<path d="M32130 33690
L32290 34190
L32460 33690
" />
</g>
</g>
<g style="fill:#008484; fill-opacity:0.0; 
stroke:#008484; stroke-width:0; stroke-opacity:1; 
stroke-linecap:round; stroke-linejoin:round;">
<g >
</g>
<g style="fill:#840000; fill-opacity:0.0; 
stroke:#840000; stroke-width:0; stroke-opacity:1; 
stroke-linecap:round; stroke-linejoin:round;">
</g>
<g style="fill:#840000; fill-opacity:0.0; 
stroke:#840000; stroke-width:100; stroke-opacity:1; 
stroke-linecap:round; stroke-linejoin:round;">
<path style="fill:#840000; fill-opacity:0.0; 
stroke:#840000; stroke-width:100; stroke-opacity:1; 
stroke-linecap:round; stroke-linejoin:round;fill:none"
d="M 39500,31000
38500,31000
" /> 
</g>
<g style="fill:#840000; fill-opacity:0.0; 
stroke:#840000; stroke-width:60; stroke-opacity:1; 
stroke-linecap:round; stroke-linejoin:round;">
<path style="fill:#840000; fill-opacity:0.0; 
stroke:#840000; stroke-width:60; stroke-opacity:1; 
stroke-linecap:round; stroke-linejoin:round;fill:none"
d="M 39000,31000
39000,30000
" /> 
</g>
<g style="fill:#840000; fill-opacity:0.0; 
stroke:#840000; stroke-width:100; stroke-opacity:1; 
stroke-linecap:round; stroke-linejoin:round;">
<path style="fill:#840000; fill-opacity:0.0; 
stroke:#840000; stroke-width:100; stroke-opacity:1; 
stroke-linecap:round; stroke-linejoin:round;fill:none"
d="M 39500,30000
38500,30000
39000,31000
Z" /> 
</g>
<g style="fill:#840000; fill-opacity:0.0; 
stroke:#840000; stroke-width:60; stroke-opacity:1; 
stroke-linecap:round; stroke-linejoin:round;">
<path style="fill:#840000; fill-opacity:0.0; 
stroke:#840000; stroke-width:60; stroke-opacity:1; 
stroke-linecap:round; stroke-linejoin:round;fill:none"
d="M 39300,31700
39900,32300
39900,32000
39900,32300
39600,32300
" /> 
<path style="fill:#840000; fill-opacity:0.0; 
stroke:#840000; stroke-width:60; stroke-opacity:1; 
stroke-linecap:round; stroke-linejoin:round;fill:none"
d="M 39300,31200
39900,31800
39900,31500
39900,31800
39600,31800
" /> 
<path d="M39000 31000
L39000 32000
" />
<path d="M39000 30000
L39000 29000
" />
</g>
<g style="fill:#008484; fill-opacity:0.0; 
stroke:#008484; stroke-width:60; stroke-opacity:1; 
stroke-linecap:round; stroke-linejoin:round;">
<text x="40700" y="30330"
textLength="1040" font-size="660" lengthAdjust="spacingAndGlyphs"
text-anchor="middle" opacity="0">D1</text>
<path d="M40330 30300
L40330 29800
L40450 29800
L40520 29830
L40560 29870
L40590 29920
L40610 30020
L40610 30090
L40590 30180
L40560 30230
L40520 30280
L40450 30300
L40330 30300
" />
<path d="M41090 30300
L40800 30300
" />
<path d="M40950 30300
L40950 29800
L40900 29870
L40850 29920
L40800 29940
" />
<text x="40890" y="31240"
textLength="1420" font-size="660" lengthAdjust="spacingAndGlyphs"
text-anchor="middle" opacity="0">LED</text>
<path d="M40560 31210
L40330 31210
L40330 30710
" />
<path d="M40730 30950
L40900 30950
" />
<path d="M40970 31210
L40730 31210
L40730 30710
L40970 30710
" />
<path d="M41180 31210
L41180 30710
L41300 30710
L41370 30740
L41420 30780
L41440 30830
L41470 30930
L41470 31000
L41440 31090
L41420 31140
L41370 31190
L41300 31210
L41180 31210
" />
</g>
</g>
<g style="fill:#008484; fill-opacity:0.0; 
stroke:#008484; stroke-width:0; stroke-opacity:1; 
stroke-linecap:round; stroke-linejoin:round;">
<g >
</g>
<g style="fill:#840000; fill-opacity:0.0; 
stroke:#840000; stroke-width:0; stroke-opacity:1; 
stroke-linecap:round; stroke-linejoin:round;">
</g>
<g style="fill:#840000; fill-opacity:0.0; 
stroke:#840000; stroke-width:100; stroke-opacity:1; 
stroke-linecap:round; stroke-linejoin:round;">
<rect x="38600" y="25500" width="800" height="2000" rx="0" />
</g>
<g style="fill:#840000; fill-opacity:0.0; 
stroke:#840000; stroke-width:60; stroke-opacity:1; 
stroke-linecap:round; stroke-linejoin:round;">
<path d="M39000 25500
L39000 25000
" />
<path d="M39000 27500
L39000 28000
" />
</g>
<g style="fill:#008484; fill-opacity:0.0; 
stroke:#008484; stroke-width:60; stroke-opacity:1; 
stroke-linecap:round; stroke-linejoin:round;">
<text x="40220" y="26310"
textLength="1040" font-size="660" lengthAdjust="spacingAndGlyphs"
text-anchor="middle" opacity="0">R1</text>
<path d="M40130 26280
L39970 26040
" />
<path d="M39850 26280
L39850 25780
L40040 25780
L40080 25810
L40110 25830
L40130 25880
L40130 25950
L40110 26000
L40080 26020
L40040 26040
L39850 26040
" />
<path d="M40610 26280
L40320 26280
" />
<path d="M40470 26280
L40470 25780
L40420 25850
L40370 25900
L40320 25920
" />
<text x="40220" y="27220"
textLength="1040" font-size="660" lengthAdjust="spacingAndGlyphs"
text-anchor="middle" opacity="0">1K</text>
<path d="M40110 27190
L39820 27190
" />
<path d="M39970 27190
L39970 26690
L39920 26760
L39870 26810
L39820 26830
" />
<path d="M40320 27190
L40320 26690
" />
<path d="M40610 27190
L40390 26910
" />
<path d="M40610 26690
L40320 26980
" />
</g>
</g>
<g style="fill:#008484; fill-opacity:0.0; 
stroke:#008484; stroke-width:0; stroke-opacity:1; 
stroke-linecap:round; stroke-linejoin:round;">
<g >
</g>
<g style="fill:#840000; fill-opacity:0.0; 
stroke:#840000; stroke-width:0; stroke-opacity:1; 
stroke-linecap:round; stroke-linejoin:round;">
</g>
<g style="fill:#840000; fill-opacity:0.0; 
stroke:#840000; stroke-width:60; stroke-opacity:1; 
stroke-linecap:round; stroke-linejoin:round;">
<path style="fill:#840000; fill-opacity:0.0; 
stroke:#840000; stroke-width:60; stroke-opacity:1; 
stroke-linecap:round; stroke-linejoin:round;fill:none"
d="M 39000,33000
39000,33500
39500,33500
39000,34000
38500,33500
39000,33500
" /> 
</g>
<g style="fill:#008484; fill-opacity:0.0; 
stroke:#008484; stroke-width:60; stroke-opacity:1; 
stroke-linecap:round; stroke-linejoin:round;">
<text x="39050" y="35000"
textLength="1580" font-size="660" lengthAdjust="spacingAndGlyphs"
text-anchor="middle" opacity="0">GND</text>
<path d="M38660 34500
L38620 34470
L38550 34470
L38470 34500
L38430 34540
L38400 34590
L38380 34690
L38380 34760
L38400 34850
L38430 34900
L38470 34950
L38550 34970
L38590 34970
L38660 34950
L38690 34920
L38690 34760
L38590 34760
" />
<path d="M38900 34970
L38900 34470
L39190 34970
L39190 34470
" />
<path d="M39430 34970
L39430 34470
L39550 34470
L39620 34500
L39660 34540
L39690 34590
L39710 34690
L39710 34760
L39690 34850
L39660 34900
L39620 34950
L39550 34970
L39430 34970
" />
</g>
</g>
<g style="fill:#008484; fill-opacity:0.0; 
stroke:#008484; stroke-width:0; stroke-opacity:1; 
stroke-linecap:round; stroke-linejoin:round;">
<g >
</g>
<g style="fill:#840000; fill-opacity:0.0; 
stroke:#840000; stroke-width:0; stroke-opacity:1; 
stroke-linecap:round; stroke-linejoin:round;">
</g>
<g style="fill:#840000; fill-opacity:0.0; 
stroke:#840000; stroke-width:60; stroke-opacity:1; 
stroke-linecap:round; stroke-linejoin:round;">
<path style="fill:#840000; fill-opacity:0.0; 
stroke:#840000; stroke-width:60; stroke-opacity:1; 
stroke-linecap:round; stroke-linejoin:round;fill:none"
d="M 57500,26500
57500,27000
58000,27000
57500,27500
57000,27000
57500,27000
" /> 
</g>
<g style="fill:#008484; fill-opacity:0.0; 
stroke:#008484; stroke-width:60; stroke-opacity:1; 
stroke-linecap:round; stroke-linejoin:round;">
<text x="57550" y="28500"
textLength="1580" font-size="660" lengthAdjust="spacingAndGlyphs"
text-anchor="middle" opacity="0">GND</text>
<path d="M57160 28000
L57120 27970
L57050 27970
L56970 28000
L56930 28040
L56900 28090
L56880 28190
L56880 28260
L56900 28350
L56930 28400
L56970 28450
L57050 28470
L57090 28470
L57160 28450
L57190 28420
L57190 28260
L57090 28260
" />
<path d="M57400 28470
L57400 27970
L57690 28470
L57690 27970
" />
<path d="M57930 28470
L57930 27970
L58050 27970
L58120 28000
L58160 28040
L58190 28090
L58210 28190
L58210 28260
L58190 28350
L58160 28400
L58120 28450
L58050 28470
L57930 28470
" />
</g>
</g>
<g style="fill:#008484; fill-opacity:0.0; 
stroke:#008484; stroke-width:0; stroke-opacity:1; 
stroke-linecap:round; stroke-linejoin:round;">
<g >
</g>
<g style="fill:#840000; fill-opacity:0.0; 
stroke:#840000; stroke-width:0; stroke-opacity:1; 
stroke-linecap:round; stroke-linejoin:round;">
</g>
<g style="fill:#840000; fill-opacity:0.0; 
stroke:#840000; stroke-width:60; stroke-opacity:1; 
stroke-linecap:round; stroke-linejoin:round;">
<circle cx="33200" cy="26000" r="200" /> 
<circle cx="34800" cy="27000" r="200" /> 
<circle cx="34800" cy="25000" r="200" /> 
<path style="fill:#840000; fill-opacity:0.0; 
stroke:#840000; stroke-width:60; stroke-opacity:1; 
stroke-linecap:round; stroke-linejoin:round;fill:none"
d="M 33400,25900
34650,25100
" /> 
<path d="M35000 25000
L36000 25000
" />
<text x="35500" y="25600"
textLength="540" font-size="660" lengthAdjust="spacingAndGlyphs"
text-anchor="middle" opacity="0">7</text>
<path d="M35330 25070
L35660 25070
L35450 25570
" />
<path d="M33000 26000
L32000 26000
" />
<text x="32500" y="26600"
textLength="540" font-size="660" lengthAdjust="spacingAndGlyphs"
text-anchor="middle" opacity="0">8</text>
<path d="M32450 26290
L32400 26260
L32380 26240
L32350 26190
L32350 26170
L32380 26120
L32400 26100
L32450 26070
L32540 26070
L32590 26100
L32610 26120
L32640 26170
L32640 26190
L32610 26240
L32590 26260
L32540 26290
L32450 26290
L32400 26310
L32380 26330
L32350 26380
L32350 26480
L32380 26520
L32400 26550
L32450 26570
L32540 26570
L32590 26550
L32610 26520
L32640 26480
L32640 26380
L32610 26330
L32590 26310
L32540 26290
" />
<path d="M35000 27000
L36000 27000
" />
<text x="35500" y="27600"
textLength="540" font-size="660" lengthAdjust="spacingAndGlyphs"
text-anchor="middle" opacity="0">9</text>
<path d="M35400 27570
L35500 27570
L35540 27550
L35570 27520
L35610 27450
L35640 27360
L35640 27170
L35610 27120
L35590 27100
L35540 27070
L35450 27070
L35400 27100
L35380 27120
L35350 27170
L35350 27290
L35380 27330
L35400 27360
L35450 27380
L35540 27380
L35590 27360
L35610 27330
L35640 27290
" />
</g>
<g style="fill:#008484; fill-opacity:0.0; 
stroke:#008484; stroke-width:60; stroke-opacity:1; 
stroke-linecap:round; stroke-linejoin:round;">
<text x="34000" y="23270"
textLength="2080" font-size="660" lengthAdjust="spacingAndGlyphs"
text-anchor="middle" opacity="0">SW1C</text>
<path d="M33080 23220
L33150 23240
L33270 23240
L33320 23220
L33340 23190
L33360 23150
L33360 23100
L33340 23050
L33320 23030
L33270 23000
L33170 22980
L33130 22960
L33100 22930
L33080 22880
L33080 22840
L33100 22790
L33130 22770
L33170 22740
L33290 22740
L33360 22770
" />
<path d="M33530 22740
L33650 23240
L33750 22880
L33840 23240
L33960 22740
" />
<path d="M34410 23240
L34130 23240
" />
<path d="M34270 23240
L34270 22740
L34220 22810
L34170 22860
L34130 22880
" />
<path d="M34910 23190
L34890 23220
L34820 23240
L34770 23240
L34700 23220
L34650 23170
L34630 23120
L34600 23030
L34600 22960
L34630 22860
L34650 22810
L34700 22770
L34770 22740
L34820 22740
L34890 22770
L34910 22790
" />
<text x="34000" y="24270"
textLength="4610" font-size="660" lengthAdjust="spacingAndGlyphs"
text-anchor="middle" opacity="0">FOOTSWITCH</text>
<path d="M32010 23980
L31840 23980
" />
<path d="M31840 24240
L31840 23740
L32080 23740
" />
<path d="M32360 23740
L32460 23740
L32510 23770
L32550 23810
L32580 23910
L32580 24070
L32550 24170
L32510 24220
L32460 24240
L32360 24240
L32320 24220
L32270 24170
L32250 24070
L32250 23910
L32270 23810
L32320 23770
L32360 23740
" />
<path d="M32890 23740
L32980 23740
L33030 23770
L33080 23810
L33100 23910
L33100 24070
L33080 24170
L33030 24220
L32980 24240
L32890 24240
L32840 24220
L32790 24170
L32770 24070
L32770 23910
L32790 23810
L32840 23770
L32890 23740
" />
<path d="M33250 23740
L33530 23740
" />
<path d="M33390 24240
L33390 23740
" />
<path d="M33670 24220
L33750 24240
L33860 24240
L33910 24220
L33940 24190
L33960 24150
L33960 24100
L33940 24050
L33910 24030
L33860 24000
L33770 23980
L33720 23960
L33700 23930
L33670 23880
L33670 23840
L33700 23790
L33720 23770
L33770 23740
L33890 23740
L33960 23770
" />
<path d="M34130 23740
L34250 24240
L34340 23880
L34440 24240
L34550 23740
" />
<path d="M34750 24240
L34750 23740
" />
<path d="M34910 23740
L35200 23740
" />
<path d="M35050 24240
L35050 23740
" />
<path d="M35650 24190
L35630 24220
L35550 24240
L35510 24240
L35440 24220
L35390 24170
L35360 24120
L35340 24030
L35340 23960
L35360 23860
L35390 23810
L35440 23770
L35510 23740
L35550 23740
L35630 23770
L35650 23790
" />
<path d="M35860 24240
L35860 23740
" />
<path d="M35860 23980
L36150 23980
" />
<path d="M36150 24240
L36150 23740
" />
</g>
</g>
<g style="fill:#008484; fill-opacity:0.0; 
stroke:#008484; stroke-width:0; stroke-opacity:1; 
stroke-linecap:round; stroke-linejoin:round;">
<g >
</g>
<g style="fill:#840000; fill-opacity:0.0; 
stroke:#840000; stroke-width:0; stroke-opacity:1; 
stroke-linecap:round; stroke-linejoin:round;">
</g>
<g style="fill:#840000; fill-opacity:0.0; 
stroke:#840000; stroke-width:60; stroke-opacity:1; 
stroke-linecap:round; stroke-linejoin:round;">
<circle cx="58800" cy="37500" r="200" /> 
<circle cx="57200" cy="38500" r="200" /> 
<circle cx="57200" cy="36500" r="200" /> 
<path style="fill:#840000; fill-opacity:0.0; 
stroke:#840000; stroke-width:60; stroke-opacity:1; 
stroke-linecap:round; stroke-linejoin:round;fill:none"
d="M 58600,37400
57350,36600
" /> 
<path d="M57000 36500
L56000 36500
" />
<text x="56500" y="37100"
textLength="540" font-size="660" lengthAdjust="spacingAndGlyphs"
text-anchor="middle" opacity="0">4</text>
<path d="M56590 36740
L56590 37070
" />
<path d="M56470 36550
L56350 36900
L56660 36900
" />
<path d="M59000 37500
L60000 37500
" />
<text x="59500" y="38100"
textLength="540" font-size="660" lengthAdjust="spacingAndGlyphs"
text-anchor="middle" opacity="0">5</text>
<path d="M59610 37570
L59380 37570
L59350 37810
L59380 37790
L59420 37760
L59540 37760
L59590 37790
L59610 37810
L59640 37860
L59640 37980
L59610 38020
L59590 38050
L59540 38070
L59420 38070
L59380 38050
L59350 38020
" />
<path d="M57000 38500
L56000 38500
" />
<text x="56500" y="39100"
textLength="540" font-size="660" lengthAdjust="spacingAndGlyphs"
text-anchor="middle" opacity="0">6</text>
<path d="M56590 38570
L56500 38570
L56450 38600
L56420 38620
L56380 38690
L56350 38790
L56350 38980
L56380 39020
L56400 39050
L56450 39070
L56540 39070
L56590 39050
L56610 39020
L56640 38980
L56640 38860
L56610 38810
L56590 38790
L56540 38760
L56450 38760
L56400 38790
L56380 38810
L56350 38860
" />
</g>
<g style="fill:#008484; fill-opacity:0.0; 
stroke:#008484; stroke-width:60; stroke-opacity:1; 
stroke-linecap:round; stroke-linejoin:round;">
<text x="58000" y="34920"
textLength="2080" font-size="660" lengthAdjust="spacingAndGlyphs"
text-anchor="middle" opacity="0">SW1B</text>
<path d="M57080 34870
L57150 34890
L57270 34890
L57320 34870
L57340 34840
L57360 34800
L57360 34750
L57340 34700
L57320 34680
L57270 34650
L57170 34630
L57130 34610
L57100 34580
L57080 34530
L57080 34490
L57100 34440
L57130 34420
L57170 34390
L57290 34390
L57360 34420
" />
<path d="M57530 34390
L57650 34890
L57750 34530
L57840 34890
L57960 34390
" />
<path d="M58410 34890
L58130 34890
" />
<path d="M58270 34890
L58270 34390
L58220 34460
L58170 34510
L58130 34530
" />
<path d="M58790 34630
L58860 34650
L58890 34680
L58910 34720
L58910 34800
L58890 34840
L58860 34870
L58820 34890
L58630 34890
L58630 34390
L58790 34390
L58840 34420
L58860 34440
L58890 34490
L58890 34530
L58860 34580
L58840 34610
L58790 34630
L58630 34630
" />
<text x="57990" y="35830"
textLength="4610" font-size="660" lengthAdjust="spacingAndGlyphs"
text-anchor="middle" opacity="0">FOOTSWITCH</text>
<path d="M56000 35540
L55830 35540
" />
<path d="M55830 35800
L55830 35300
L56070 35300
" />
<path d="M56350 35300
L56450 35300
L56500 35330
L56540 35370
L56570 35470
L56570 35630
L56540 35730
L56500 35780
L56450 35800
L56350 35800
L56310 35780
L56260 35730
L56240 35630
L56240 35470
L56260 35370
L56310 35330
L56350 35300
" />
<path d="M56880 35300
L56970 35300
L57020 35330
L57070 35370
L57090 35470
L57090 35630
L57070 35730
L57020 35780
L56970 35800
L56880 35800
L56830 35780
L56780 35730
L56760 35630
L56760 35470
L56780 35370
L56830 35330
L56880 35300
" />
<path d="M57240 35300
L57520 35300
" />
<path d="M57380 35800
L57380 35300
" />
<path d="M57660 35780
L57740 35800
L57850 35800
L57900 35780
L57930 35750
L57950 35710
L57950 35660
L57930 35610
L57900 35590
L57850 35560
L57760 35540
L57710 35520
L57690 35490
L57660 35440
L57660 35400
L57690 35350
L57710 35330
L57760 35300
L57880 35300
L57950 35330
" />
<path d="M58120 35300
L58240 35800
L58330 35440
L58430 35800
L58540 35300
" />
<path d="M58740 35800
L58740 35300
" />
<path d="M58900 35300
L59190 35300
" />
<path d="M59040 35800
L59040 35300
" />
<path d="M59640 35750
L59620 35780
L59540 35800
L59500 35800
L59430 35780
L59380 35730
L59350 35680
L59330 35590
L59330 35520
L59350 35420
L59380 35370
L59430 35330
L59500 35300
L59540 35300
L59620 35330
L59640 35350
" />
<path d="M59850 35800
L59850 35300
" />
<path d="M59850 35540
L60140 35540
" />
<path d="M60140 35800
L60140 35300
" />
</g>
</g>
<g style="fill:#008484; fill-opacity:0.0; 
stroke:#008484; stroke-width:0; stroke-opacity:1; 
stroke-linecap:round; stroke-linejoin:round;">
<g >
</g>
<g style="fill:#840000; fill-opacity:0.0; 
stroke:#840000; stroke-width:0; stroke-opacity:1; 
stroke-linecap:round; stroke-linejoin:round;">
</g>
<g style="fill:#840000; fill-opacity:0.0; 
stroke:#840000; stroke-width:60; stroke-opacity:1; 
stroke-linecap:round; stroke-linejoin:round;">
<circle cx="31200" cy="37500" r="200" /> 
<circle cx="32800" cy="38500" r="200" /> 
<circle cx="32800" cy="36500" r="200" /> 
<path style="fill:#840000; fill-opacity:0.0; 
stroke:#840000; stroke-width:60; stroke-opacity:1; 
stroke-linecap:round; stroke-linejoin:round;fill:none"
d="M 31400,37400
32650,36600
" /> 
<path d="M33000 36500
L34000 36500
" />
<text x="33500" y="37100"
textLength="540" font-size="660" lengthAdjust="spacingAndGlyphs"
text-anchor="middle" opacity="0">1</text>
<path d="M33640 37070
L33350 37070
" />
<path d="M33500 37070
L33500 36570
L33450 36640
L33400 36690
L33350 36710
" />
<path d="M31000 37500
L30000 37500
" />
<text x="30500" y="38100"
textLength="540" font-size="660" lengthAdjust="spacingAndGlyphs"
text-anchor="middle" opacity="0">2</text>
<path d="M30350 37620
L30380 37600
L30420 37570
L30540 37570
L30590 37600
L30610 37620
L30640 37670
L30640 37710
L30610 37790
L30330 38070
L30640 38070
" />
<path d="M33000 38500
L34000 38500
" />
<text x="33500" y="39100"
textLength="540" font-size="660" lengthAdjust="spacingAndGlyphs"
text-anchor="middle" opacity="0">3</text>
<path d="M33330 38570
L33640 38570
L33470 38760
L33540 38760
L33590 38790
L33610 38810
L33640 38860
L33640 38980
L33610 39020
L33590 39050
L33540 39070
L33400 39070
L33350 39050
L33330 39020
" />
</g>
<g style="fill:#008484; fill-opacity:0.0; 
stroke:#008484; stroke-width:60; stroke-opacity:1; 
stroke-linecap:round; stroke-linejoin:round;">
<text x="32000" y="40270"
textLength="2010" font-size="660" lengthAdjust="spacingAndGlyphs"
text-anchor="middle" opacity="0">SW1A</text>
<path d="M31110 40220
L31190 40240
L31300 40240
L31350 40220
L31380 40190
L31400 40150
L31400 40100
L31380 40050
L31350 40030
L31300 40000
L31210 39980
L31160 39960
L31140 39930
L31110 39880
L31110 39840
L31140 39790
L31160 39770
L31210 39740
L31330 39740
L31400 39770
" />
<path d="M31570 39740
L31690 40240
L31780 39880
L31880 40240
L32000 39740
" />
<path d="M32450 40240
L32160 40240
" />
<path d="M32300 40240
L32300 39740
L32260 39810
L32210 39860
L32160 39880
" />
<path d="M32640 40100
L32880 40100
" />
<path d="M32590 40240
L32760 39740
L32920 40240
" />
<text x="32000" y="41270"
textLength="4610" font-size="660" lengthAdjust="spacingAndGlyphs"
text-anchor="middle" opacity="0">FOOTSWITCH</text>
<path d="M30010 40980
L29840 40980
" />
<path d="M29840 41240
L29840 40740
L30080 40740
" />
<path d="M30360 40740
L30460 40740
L30510 40770
L30550 40810
L30580 40910
L30580 41070
L30550 41170
L30510 41220
L30460 41240
L30360 41240
L30320 41220
L30270 41170
L30250 41070
L30250 40910
L30270 40810
L30320 40770
L30360 40740
" />
<path d="M30890 40740
L30980 40740
L31030 40770
L31080 40810
L31100 40910
L31100 41070
L31080 41170
L31030 41220
L30980 41240
L30890 41240
L30840 41220
L30790 41170
L30770 41070
L30770 40910
L30790 40810
L30840 40770
L30890 40740
" />
<path d="M31250 40740
L31530 40740
" />
<path d="M31390 41240
L31390 40740
" />
<path d="M31670 41220
L31750 41240
L31860 41240
L31910 41220
L31940 41190
L31960 41150
L31960 41100
L31940 41050
L31910 41030
L31860 41000
L31770 40980
L31720 40960
L31700 40930
L31670 40880
L31670 40840
L31700 40790
L31720 40770
L31770 40740
L31890 40740
L31960 40770
" />
<path d="M32130 40740
L32250 41240
L32340 40880
L32440 41240
L32550 40740
" />
<path d="M32750 41240
L32750 40740
" />
<path d="M32910 40740
L33200 40740
" />
<path d="M33050 41240
L33050 40740
" />
<path d="M33650 41190
L33630 41220
L33550 41240
L33510 41240
L33440 41220
L33390 41170
L33360 41120
L33340 41030
L33340 40960
L33360 40860
L33390 40810
L33440 40770
L33510 40740
L33550 40740
L33630 40770
L33650 40790
" />
<path d="M33860 41240
L33860 40740
" />
<path d="M33860 40980
L34150 40980
" />
<path d="M34150 41240
L34150 40740
" />
</g>
</g>
<g style="fill:#008484; fill-opacity:0.0; 
stroke:#008484; stroke-width:0; stroke-opacity:1; 
stroke-linecap:round; stroke-linejoin:round;">
<g >
</g>
<g style="fill:#840000; fill-opacity:0.0; 
stroke:#840000; stroke-width:0; stroke-opacity:1; 
stroke-linecap:round; stroke-linejoin:round;">
</g>
<g style="fill:#FFFFC2; fill-opacity:0.0; 
stroke:#FFFFC2; stroke-width:0; stroke-opacity:1; 
stroke-linecap:round; stroke-linejoin:round;">
</g>
<g style="fill:#FFFFC2; fill-opacity:0.6; 
stroke:#FFFFC2; stroke-width:0; stroke-opacity:1; 
stroke-linecap:round; stroke-linejoin:round;">
<rect x="23000" y="25500" width="4000" height="3000" rx="0" />
</g>
<g style="fill:#840000; fill-opacity:0.6; 
stroke:#840000; stroke-width:0; stroke-opacity:1; 
stroke-linecap:round; stroke-linejoin:round;">
</g>
<g style="fill:#840000; fill-opacity:0.0; 
stroke:#840000; stroke-width:100; stroke-opacity:1; 
stroke-linecap:round; stroke-linejoin:round;">
<rect x="23000" y="25500" width="4000" height="3000" rx="0" />
</g>
<g style="fill:#840000; fill-opacity:1.0; 
stroke:#840000; stroke-width:0; stroke-opacity:1; 
stroke-linecap:round; stroke-linejoin:round;">
<path d="M23699.6 27750 A250 250 0.0 0 0 23699.6 28250 L 23700 28000 Z" />
</g>
<g style="fill:#840000; fill-opacity:0.0; 
stroke:#840000; stroke-width:100; stroke-opacity:1; 
stroke-linecap:round; stroke-linejoin:round;">
<path d="M23699.6 27750 A250 250 0.0 0 0 23699.6 28250" />
<path d="M23699.6 27750 A250 250 0.0 0 0 23699.6 28250" />
<rect x="23000" y="25500" width="4000" height="3000" rx="0" />
</g>
<g style="fill:#840000; fill-opacity:1.0; 
stroke:#840000; stroke-width:100; stroke-opacity:1; 
stroke-linecap:round; stroke-linejoin:round;">
<rect x="23700" y="27750" width="2750" height="500" rx="0" />
</g>
<g style="fill:#840000; fill-opacity:0.0; 
stroke:#840000; stroke-width:100; stroke-opacity:1; 
stroke-linecap:round; stroke-linejoin:round;">
<path style="fill:#840000; fill-opacity:0.0; 
stroke:#840000; stroke-width:100; stroke-opacity:1; 
stroke-linecap:round; stroke-linejoin:round;fill:none"
d="M 25500,26100
25750,26350
" /> 
<path style="fill:#840000; fill-opacity:0.0; 
stroke:#840000; stroke-width:100; stroke-opacity:1; 
stroke-linecap:round; stroke-linejoin:round;fill:none"
d="M 27000,28000
26500,28000
" /> 
<path style="fill:#840000; fill-opacity:0.0; 
stroke:#840000; stroke-width:100; stroke-opacity:1; 
stroke-linecap:round; stroke-linejoin:round;fill:none"
d="M 27000,27000
25500,27000
25500,26100
25250,26350
" /> 
<path style="fill:#840000; fill-opacity:0.0; 
stroke:#840000; stroke-width:100; stroke-opacity:1; 
stroke-linecap:round; stroke-linejoin:round;fill:none"
d="M 23500,26000
24000,26000
24500,26500
25000,26000
26000,26000
27000,26000
" /> 
</g>
<g style="fill:#840000; fill-opacity:0.0; 
stroke:#840000; stroke-width:60; stroke-opacity:1; 
stroke-linecap:round; stroke-linejoin:round;">
<path d="M27000 28000
L28000 28000
" />
<text x="27500" y="27900"
textLength="540" font-size="660" lengthAdjust="spacingAndGlyphs"
text-anchor="middle" opacity="0">1</text>
<path d="M27640 27870
L27350 27870
" />
<path d="M27500 27870
L27500 27370
L27450 27440
L27400 27490
L27350 27510
" />
<path d="M27000 26000
L28000 26000
" />
<text x="27500" y="25900"
textLength="540" font-size="660" lengthAdjust="spacingAndGlyphs"
text-anchor="middle" opacity="0">2</text>
<path d="M27350 25420
L27380 25400
L27420 25370
L27540 25370
L27590 25400
L27610 25420
L27640 25470
L27640 25510
L27610 25590
L27330 25870
L27640 25870
" />
<path d="M27000 27000
L28000 27000
" />
<text x="27500" y="26900"
textLength="540" font-size="660" lengthAdjust="spacingAndGlyphs"
text-anchor="middle" opacity="0">3</text>
<path d="M27330 26370
L27640 26370
L27470 26560
L27540 26560
L27590 26590
L27610 26610
L27640 26660
L27640 26780
L27610 26820
L27590 26850
L27540 26870
L27400 26870
L27350 26850
L27330 26820
" />
</g>
<g style="fill:#008484; fill-opacity:0.0; 
stroke:#008484; stroke-width:60; stroke-opacity:1; 
stroke-linecap:round; stroke-linejoin:round;">
<text x="25550" y="30390"
textLength="920" font-size="660" lengthAdjust="spacingAndGlyphs"
text-anchor="middle" opacity="0">J1</text>
<path d="M25380 29860
L25380 30220
L25350 30290
L25310 30340
L25240 30360
L25190 30360
" />
<path d="M25880 30360
L25590 30360
" />
<path d="M25740 30360
L25740 29860
L25690 29930
L25640 29980
L25590 30000
" />
<text x="25550" y="29480"
textLength="1960" font-size="660" lengthAdjust="spacingAndGlyphs"
text-anchor="middle" opacity="0">9VDC</text>
<path d="M24740 29450
L24830 29450
L24880 29430
L24900 29400
L24950 29330
L24970 29240
L24970 29050
L24950 29000
L24930 28980
L24880 28950
L24780 28950
L24740 28980
L24710 29000
L24690 29050
L24690 29170
L24710 29210
L24740 29240
L24780 29260
L24880 29260
L24930 29240
L24950 29210
L24970 29170
" />
<path d="M25120 28950
L25280 29450
L25450 28950
" />
<path d="M25620 29450
L25620 28950
L25740 28950
L25810 28980
L25850 29020
L25880 29070
L25900 29170
L25900 29240
L25880 29330
L25850 29380
L25810 29430
L25740 29450
L25620 29450
" />
<path d="M26400 29400
L26380 29430
L26310 29450
L26260 29450
L26190 29430
L26140 29380
L26120 29330
L26090 29240
L26090 29170
L26120 29070
L26140 29020
L26190 28980
L26260 28950
L26310 28950
L26380 28980
L26400 29000
" />
</g>
</g>
<g style="fill:#008484; fill-opacity:0.0; 
stroke:#008484; stroke-width:0; stroke-opacity:1; 
stroke-linecap:round; stroke-linejoin:round;">
<g >
</g>
<g style="fill:#840000; fill-opacity:0.0; 
stroke:#840000; stroke-width:0; stroke-opacity:1; 
stroke-linecap:round; stroke-linejoin:round;">
</g>
<g style="fill:#FFFFC2; fill-opacity:0.0; 
stroke:#FFFFC2; stroke-width:0; stroke-opacity:1; 
stroke-linecap:round; stroke-linejoin:round;">
</g>
<g style="fill:#FFFFC2; fill-opacity:0.6; 
stroke:#FFFFC2; stroke-width:0; stroke-opacity:1; 
stroke-linecap:round; stroke-linejoin:round;">
<rect x="23000" y="35000" width="3000" height="3500" rx="0" />
</g>
<g style="fill:#840000; fill-opacity:0.6; 
stroke:#840000; stroke-width:0; stroke-opacity:1; 
stroke-linecap:round; stroke-linejoin:round;">
</g>
<g style="fill:#840000; fill-opacity:0.0; 
stroke:#840000; stroke-width:100; stroke-opacity:1; 
stroke-linecap:round; stroke-linejoin:round;">
<rect x="23000" y="35000" width="3000" height="3500" rx="0" />
</g>
<g style="fill:#840000; fill-opacity:1.0; 
stroke:#840000; stroke-width:100; stroke-opacity:1; 
stroke-linecap:round; stroke-linejoin:round;">
<rect x="22500" y="37500" width="500" height="1000" rx="0" />
</g>
<g style="fill:#840000; fill-opacity:0.0; 
stroke:#840000; stroke-width:100; stroke-opacity:1; 
stroke-linecap:round; stroke-linejoin:round;">
<rect x="23000" y="35000" width="3000" height="3500" rx="0" />
<path style="fill:#840000; fill-opacity:0.0; 
stroke:#840000; stroke-width:100; stroke-opacity:1; 
stroke-linecap:round; stroke-linejoin:round;fill:none"
d="M 25000,37500
25250,37750
25500,37500
26000,37500
" /> 
<path style="fill:#840000; fill-opacity:0.0; 
stroke:#840000; stroke-width:100; stroke-opacity:1; 
stroke-linecap:round; stroke-linejoin:round;fill:none"
d="M 24250,37500
24500,37750
24750,37500
24750,36500
26000,36500
" /> 
<path style="fill:#840000; fill-opacity:0.0; 
stroke:#840000; stroke-width:100; stroke-opacity:1; 
stroke-linecap:round; stroke-linejoin:round;fill:none"
d="M 26000,35500
24000,35500
24000,37500
23750,37750
23500,37500
" /> 
</g>
<g style="fill:#840000; fill-opacity:0.0; 
stroke:#840000; stroke-width:60; stroke-opacity:1; 
stroke-linecap:round; stroke-linejoin:round;">
<path d="M26000 36500
L27000 36500
" />
<text x="26500" y="36400"
textLength="560" font-size="660" lengthAdjust="spacingAndGlyphs"
text-anchor="middle" opacity="0">R</text>
<path d="M26650 36370
L26480 36130
" />
<path d="M26360 36370
L26360 35870
L26550 35870
L26600 35900
L26630 35920
L26650 35970
L26650 36040
L26630 36090
L26600 36110
L26550 36130
L26360 36130
" />
<path d="M26000 35500
L27000 35500
" />
<text x="26500" y="35400"
textLength="540" font-size="660" lengthAdjust="spacingAndGlyphs"
text-anchor="middle" opacity="0">S</text>
<path d="M26350 35350
L26420 35370
L26540 35370
L26590 35350
L26610 35320
L26640 35280
L26640 35230
L26610 35180
L26590 35160
L26540 35130
L26450 35110
L26400 35090
L26380 35060
L26350 35010
L26350 34970
L26380 34920
L26400 34900
L26450 34870
L26570 34870
L26640 34900
" />
<path d="M26000 37500
L27000 37500
" />
<text x="26500" y="37400"
textLength="440" font-size="660" lengthAdjust="spacingAndGlyphs"
text-anchor="middle" opacity="0">T</text>
<path d="M26350 36870
L26640 36870
" />
<path d="M26500 37370
L26500 36870
" />
</g>
<g style="fill:#008484; fill-opacity:0.0; 
stroke:#008484; stroke-width:60; stroke-opacity:1; 
stroke-linecap:round; stroke-linejoin:round;">
<text x="25040" y="33350"
textLength="920" font-size="660" lengthAdjust="spacingAndGlyphs"
text-anchor="middle" opacity="0">J2</text>
<path d="M24870 32820
L24870 33180
L24840 33250
L24800 33300
L24730 33320
L24680 33320
" />
<path d="M25080 32870
L25110 32850
L25150 32820
L25270 32820
L25320 32850
L25340 32870
L25370 32920
L25370 32960
L25340 33040
L25060 33320
L25370 33320
" />
<text x="25040" y="34260"
textLength="820" font-size="660" lengthAdjust="spacingAndGlyphs"
text-anchor="middle" opacity="0">IN</text>
<path d="M24770 34230
L24770 33730
" />
<path d="M25010 34230
L25010 33730
L25300 34230
L25300 33730
" />
</g>
</g>
<g style="fill:#008484; fill-opacity:0.0; 
stroke:#008484; stroke-width:0; stroke-opacity:1; 
stroke-linecap:round; stroke-linejoin:round;">
<g >
</g>
<g style="fill:#840000; fill-opacity:0.0; 
stroke:#840000; stroke-width:0; stroke-opacity:1; 
stroke-linecap:round; stroke-linejoin:round;">
</g>
<g style="fill:#FFFFC2; fill-opacity:0.0; 
stroke:#FFFFC2; stroke-width:0; stroke-opacity:1; 
stroke-linecap:round; stroke-linejoin:round;">
</g>
<g style="fill:#FFFFC2; fill-opacity:0.6; 
stroke:#FFFFC2; stroke-width:0; stroke-opacity:1; 
stroke-linecap:round; stroke-linejoin:round;">
<rect x="64000" y="36500" width="2000" height="2500" rx="0" />
</g>
<g style="fill:#840000; fill-opacity:0.6; 
stroke:#840000; stroke-width:0; stroke-opacity:1; 
stroke-linecap:round; stroke-linejoin:round;">
</g>
<g style="fill:#840000; fill-opacity:0.0; 
stroke:#840000; stroke-width:100; stroke-opacity:1; 
stroke-linecap:round; stroke-linejoin:round;">
<rect x="64000" y="36500" width="2000" height="2500" rx="0" />
</g>
<g style="fill:#840000; fill-opacity:1.0; 
stroke:#840000; stroke-width:100; stroke-opacity:1; 
stroke-linecap:round; stroke-linejoin:round;">
<rect x="66000" y="36500" width="500" height="1000" rx="0" />
</g>
<g style="fill:#840000; fill-opacity:0.0; 
stroke:#840000; stroke-width:100; stroke-opacity:1; 
stroke-linecap:round; stroke-linejoin:round;">
<rect x="64000" y="36500" width="2000" height="2500" rx="0" />
<path style="fill:#840000; fill-opacity:0.0; 
stroke:#840000; stroke-width:100; stroke-opacity:1; 
stroke-linecap:round; stroke-linejoin:round;fill:none"
d="M 65000,37500
64750,37250
64500,37500
64000,37500
" /> 
<path style="fill:#840000; fill-opacity:0.0; 
stroke:#840000; stroke-width:100; stroke-opacity:1; 
stroke-linecap:round; stroke-linejoin:round;fill:none"
d="M 64000,38500
65250,38500
65250,37500
65500,37250
65750,37500
" /> 
</g>
<g style="fill:#840000; fill-opacity:0.0; 
stroke:#840000; stroke-width:60; stroke-opacity:1; 
stroke-linecap:round; stroke-linejoin:round;">
<path d="M64000 38500
L63000 38500
" />
<text x="63500" y="38400"
textLength="540" font-size="660" lengthAdjust="spacingAndGlyphs"
text-anchor="middle" opacity="0">S</text>
<path d="M63350 38350
L63420 38370
L63540 38370
L63590 38350
L63610 38320
L63640 38280
L63640 38230
L63610 38180
L63590 38160
L63540 38130
L63450 38110
L63400 38090
L63380 38060
L63350 38010
L63350 37970
L63380 37920
L63400 37900
L63450 37870
L63570 37870
L63640 37900
" />
<path d="M64000 37500
L63000 37500
" />
<text x="63500" y="37400"
textLength="440" font-size="660" lengthAdjust="spacingAndGlyphs"
text-anchor="middle" opacity="0">T</text>
<path d="M63350 36870
L63640 36870
" />
<path d="M63500 37370
L63500 36870
" />
</g>
<g style="fill:#008484; fill-opacity:0.0; 
stroke:#008484; stroke-width:60; stroke-opacity:1; 
stroke-linecap:round; stroke-linejoin:round;">
<text x="67790" y="37510"
textLength="920" font-size="660" lengthAdjust="spacingAndGlyphs"
text-anchor="middle" opacity="0">J3</text>
<path d="M67620 36980
L67620 37340
L67590 37410
L67550 37460
L67480 37480
L67430 37480
" />
<path d="M67810 36980
L68120 36980
L67950 37170
L68020 37170
L68070 37200
L68090 37220
L68120 37270
L68120 37390
L68090 37430
L68070 37460
L68020 37480
L67880 37480
L67830 37460
L67810 37430
" />
<text x="68070" y="38420"
textLength="1490" font-size="660" lengthAdjust="spacingAndGlyphs"
text-anchor="middle" opacity="0">OUT</text>
<path d="M67570 37890
L67660 37890
L67710 37920
L67760 37960
L67780 38060
L67780 38220
L67760 38320
L67710 38370
L67660 38390
L67570 38390
L67520 38370
L67470 38320
L67450 38220
L67450 38060
L67470 37960
L67520 37920
L67570 37890
" />
<path d="M67990 37890
L67990 38300
L68020 38340
L68040 38370
L68090 38390
L68180 38390
L68230 38370
L68260 38340
L68280 38300
L68280 37890
" />
<path d="M68450 37890
L68730 37890
" />
<path d="M68590 38390
L68590 37890
" />
</g>
</g>
<g style="fill:#008484; fill-opacity:0.0; 
stroke:#008484; stroke-width:0; stroke-opacity:1; 
stroke-linecap:round; stroke-linejoin:round;">
<g >
</g>
<g style="fill:#840000; fill-opacity:0.0; 
stroke:#840000; stroke-width:0; stroke-opacity:1; 
stroke-linecap:round; stroke-linejoin:round;">
</g>
<g style="fill:#840000; fill-opacity:0.0; 
stroke:#840000; stroke-width:60; stroke-opacity:1; 
stroke-linecap:round; stroke-linejoin:round;">
<path style="fill:#840000; fill-opacity:0.0; 
stroke:#840000; stroke-width:60; stroke-opacity:1; 
stroke-linecap:round; stroke-linejoin:round;fill:none"
d="M 63000,40000
63000,40500
63500,40500
63000,41000
62500,40500
63000,40500
" /> 
</g>
<g style="fill:#008484; fill-opacity:0.0; 
stroke:#008484; stroke-width:60; stroke-opacity:1; 
stroke-linecap:round; stroke-linejoin:round;">
<text x="63050" y="42000"
textLength="1580" font-size="660" lengthAdjust="spacingAndGlyphs"
text-anchor="middle" opacity="0">GND</text>
<path d="M62660 41500
L62620 41470
L62550 41470
L62470 41500
L62430 41540
L62400 41590
L62380 41690
L62380 41760
L62400 41850
L62430 41900
L62470 41950
L62550 41970
L62590 41970
L62660 41950
L62690 41920
L62690 41760
L62590 41760
" />
<path d="M62900 41970
L62900 41470
L63190 41970
L63190 41470
" />
<path d="M63430 41970
L63430 41470
L63550 41470
L63620 41500
L63660 41540
L63690 41590
L63710 41690
L63710 41760
L63690 41850
L63660 41900
L63620 41950
L63550 41970
L63430 41970
" />
</g>
</g>
<g style="fill:#008484; fill-opacity:0.0; 
stroke:#008484; stroke-width:0; stroke-opacity:1; 
stroke-linecap:round; stroke-linejoin:round;">
<g >
</g>
<g style="fill:#840000; fill-opacity:0.0; 
stroke:#840000; stroke-width:0; stroke-opacity:1; 
stroke-linecap:round; stroke-linejoin:round;">
</g>
<g style="fill:#840000; fill-opacity:0.0; 
stroke:#840000; stroke-width:60; stroke-opacity:1; 
stroke-linecap:round; stroke-linejoin:round;">
<path style="fill:#840000; fill-opacity:0.0; 
stroke:#840000; stroke-width:60; stroke-opacity:1; 
stroke-linecap:round; stroke-linejoin:round;fill:none"
d="M 27500,39500
27500,40000
28000,40000
27500,40500
27000,40000
27500,40000
" /> 
</g>
<g style="fill:#008484; fill-opacity:0.0; 
stroke:#008484; stroke-width:60; stroke-opacity:1; 
stroke-linecap:round; stroke-linejoin:round;">
<text x="27550" y="41500"
textLength="1580" font-size="660" lengthAdjust="spacingAndGlyphs"
text-anchor="middle" opacity="0">GND</text>
<path d="M27160 41000
L27120 40970
L27050 40970
L26970 41000
L26930 41040
L26900 41090
L26880 41190
L26880 41260
L26900 41350
L26930 41400
L26970 41450
L27050 41470
L27090 41470
L27160 41450
L27190 41420
L27190 41260
L27090 41260
" />
<path d="M27400 41470
L27400 40970
L27690 41470
L27690 40970
" />
<path d="M27930 41470
L27930 40970
L28050 40970
L28120 41000
L28160 41040
L28190 41090
L28210 41190
L28210 41260
L28190 41350
L28160 41400
L28120 41450
L28050 41470
L27930 41470
" />
</g>
</g>
<g style="fill:#008484; fill-opacity:0.0; 
stroke:#008484; stroke-width:0; stroke-opacity:1; 
stroke-linecap:round; stroke-linejoin:round;">
<g >
</g>
<g style="fill:#840000; fill-opacity:0.0; 
stroke:#840000; stroke-width:0; stroke-opacity:1; 
stroke-linecap:round; stroke-linejoin:round;">
</g>
<g style="fill:#840000; fill-opacity:0.0; 
stroke:#840000; stroke-width:60; stroke-opacity:1; 
stroke-linecap:round; stroke-linejoin:round;">
<path style="fill:#840000; fill-opacity:0.0; 
stroke:#840000; stroke-width:60; stroke-opacity:1; 
stroke-linecap:round; stroke-linejoin:round;fill:none"
d="M 28500,29000
28500,29500
29000,29500
28500,30000
28000,29500
28500,29500
" /> 
</g>
<g style="fill:#008484; fill-opacity:0.0; 
stroke:#008484; stroke-width:60; stroke-opacity:1; 
stroke-linecap:round; stroke-linejoin:round;">
<text x="28550" y="31000"
textLength="1580" font-size="660" lengthAdjust="spacingAndGlyphs"
text-anchor="middle" opacity="0">GND</text>
<path d="M28160 30500
L28120 30470
L28050 30470
L27970 30500
L27930 30540
L27900 30590
L27880 30690
L27880 30760
L27900 30850
L27930 30900
L27970 30950
L28050 30970
L28090 30970
L28160 30950
L28190 30920
L28190 30760
L28090 30760
" />
<path d="M28400 30970
L28400 30470
L28690 30970
L28690 30470
" />
<path d="M28930 30970
L28930 30470
L29050 30470
L29120 30500
L29160 30540
L29190 30590
L29210 30690
L29210 30760
L29190 30850
L29160 30900
L29120 30950
L29050 30970
L28930 30970
" />
</g>
</g>
<g style="fill:#008484; fill-opacity:0.0; 
stroke:#008484; stroke-width:60; stroke-opacity:1; 
stroke-linecap:round; stroke-linejoin:round;">
</g>
<g style="fill:#0000C2; fill-opacity:0.0; 
stroke:#0000C2; stroke-width:60; stroke-opacity:1; 
stroke-linecap:round; stroke-linejoin:round;">
</g>
<g style="fill:#0000C2; fill-opacity:0.0; 
stroke:#0000C2; stroke-width:60; stroke-opacity:1; 
stroke-linecap:round; stroke-linejoin:round;stroke-dasharray:150,150;">
<path d="M33500 31000
L33500 36000
" />
</g>
<g style="fill:#0000C2; fill-opacity:0.0; 
stroke:#0000C2; stroke-width:60; stroke-opacity:1; 
stroke-linecap:round; stroke-linejoin:round;">
</g>
<g style="fill:#0000C2; fill-opacity:0.0; 
stroke:#0000C2; stroke-width:60; stroke-opacity:1; 
stroke-linecap:round; stroke-linejoin:round;stroke-dasharray:150,150;">
<path d="M21000 42500
L21000 21000
" />
</g>
<g style="fill:#0000C2; fill-opacity:0.0; 
stroke:#0000C2; stroke-width:60; stroke-opacity:1; 
stroke-linecap:round; stroke-linejoin:round;">
</g>
<g style="fill:#0000C2; fill-opacity:0.0; 
stroke:#0000C2; stroke-width:60; stroke-opacity:1; 
stroke-linecap:round; stroke-linejoin:round;stroke-dasharray:150,150;">
<path d="M29000 42500
L21000 42500
" />
</g>
<g style="fill:#0000C2; fill-opacity:0.0; 
stroke:#0000C2; stroke-width:60; stroke-opacity:1; 
stroke-linecap:round; stroke-linejoin:round;">
</g>
<g style="fill:#0000C2; fill-opacity:0.0; 
stroke:#0000C2; stroke-width:60; stroke-opacity:1; 
stroke-linecap:round; stroke-linejoin:round;stroke-dasharray:150,150;">
<path d="M29000 36000
L29000 42500
" />
</g>
<g style="fill:#0000C2; fill-opacity:0.0; 
stroke:#0000C2; stroke-width:60; stroke-opacity:1; 
stroke-linecap:round; stroke-linejoin:round;">
</g>
<g style="fill:#0000C2; fill-opacity:0.0; 
stroke:#0000C2; stroke-width:60; stroke-opacity:1; 
stroke-linecap:round; stroke-linejoin:round;stroke-dasharray:150,150;">
<path d="M33500 36000
L29000 36000
" />
</g>
<g style="fill:#0000C2; fill-opacity:0.0; 
stroke:#0000C2; stroke-width:60; stroke-opacity:1; 
stroke-linecap:round; stroke-linejoin:round;">
</g>
<g style="fill:#0000C2; fill-opacity:0.0; 
stroke:#0000C2; stroke-width:60; stroke-opacity:1; 
stroke-linecap:round; stroke-linejoin:round;stroke-dasharray:150,150;">
<path d="M37500 31000
L33500 31000
" />
</g>
<g style="fill:#0000C2; fill-opacity:0.0; 
stroke:#0000C2; stroke-width:60; stroke-opacity:1; 
stroke-linecap:round; stroke-linejoin:round;">
</g>
<g style="fill:#0000C2; fill-opacity:0.0; 
stroke:#0000C2; stroke-width:60; stroke-opacity:1; 
stroke-linecap:round; stroke-linejoin:round;stroke-dasharray:150,150;">
<path d="M37500 21000
L37500 31000
" />
</g>
<g style="fill:#0000C2; fill-opacity:0.0; 
stroke:#0000C2; stroke-width:60; stroke-opacity:1; 
stroke-linecap:round; stroke-linejoin:round;">
</g>
<g style="fill:#0000C2; fill-opacity:0.0; 
stroke:#0000C2; stroke-width:60; stroke-opacity:1; 
stroke-linecap:round; stroke-linejoin:round;stroke-dasharray:150,150;">
<path d="M21000 21000
L37500 21000
" />
</g>
<g style="fill:#0000C2; fill-opacity:0.0; 
stroke:#0000C2; stroke-width:60; stroke-opacity:1; 
stroke-linecap:round; stroke-linejoin:round;">
</g>
<g style="fill:#0000C2; fill-opacity:0.0; 
stroke:#0000C2; stroke-width:60; stroke-opacity:1; 
stroke-linecap:round; stroke-linejoin:round;stroke-dasharray:150,150;">
<path d="M44500 21000
L44500 38000
" />
</g>
<g style="fill:#0000C2; fill-opacity:0.0; 
stroke:#0000C2; stroke-width:60; stroke-opacity:1; 
stroke-linecap:round; stroke-linejoin:round;">
</g>
<g style="fill:#0000C2; fill-opacity:0.0; 
stroke:#0000C2; stroke-width:60; stroke-opacity:1; 
stroke-linecap:round; stroke-linejoin:round;stroke-dasharray:150,150;">
<path d="M44500 38000
L53000 38000
" />
</g>
<g style="fill:#0000C2; fill-opacity:0.0; 
stroke:#0000C2; stroke-width:60; stroke-opacity:1; 
stroke-linecap:round; stroke-linejoin:round;">
</g>
<g style="fill:#0000C2; fill-opacity:0.0; 
stroke:#0000C2; stroke-width:60; stroke-opacity:1; 
stroke-linecap:round; stroke-linejoin:round;stroke-dasharray:150,150;">
<path d="M53000 38000
L53000 21000
" />
</g>
<g style="fill:#0000C2; fill-opacity:0.0; 
stroke:#0000C2; stroke-width:60; stroke-opacity:1; 
stroke-linecap:round; stroke-linejoin:round;">
</g>
<g style="fill:#0000C2; fill-opacity:0.0; 
stroke:#0000C2; stroke-width:60; stroke-opacity:1; 
stroke-linecap:round; stroke-linejoin:round;stroke-dasharray:150,150;">
<path d="M53000 21000
L44500 21000
" />
</g>
<g style="fill:#0000C2; fill-opacity:0.0; 
stroke:#0000C2; stroke-width:60; stroke-opacity:1; 
stroke-linecap:round; stroke-linejoin:round;">
</g>
<g style="fill:#008400; fill-opacity:0.0; 
stroke:#008400; stroke-width:60; stroke-opacity:1; 
stroke-linecap:round; stroke-linejoin:round;">
<path d="M41500 36500
L34000 36500
" />
<path d="M39000 32000
L39000 33000
" />
<path d="M39000 28000
L39000 29000
" />
<path d="M41500 25000
L39000 25000
" />
<path d="M36000 25000
L39000 25000
" />
<path d="M56000 25000
L57500 25000
" />
<path d="M57500 25000
L57500 26500
" />
<path d="M56000 38500
L56000 40000
" />
<path d="M27000 36500
L27500 36500
" />
<path d="M60000 37500
L63000 37500
" />
<path d="M28000 28000
L28500 28000
" />
<path d="M28500 28000
L28500 29000
" />
<path d="M30500 27000
L28000 27000
" />
<path d="M34000 38500
L34000 40000
" />
<path d="M30000 37500
L27000 37500
" />
<path d="M34000 40000
L56000 40000
" />
<path d="M28000 26000
L32000 26000
" />
<path d="M30500 27000
L30500 31500
" />
<path d="M27000 35500
L30500 35500
" />
<path d="M63000 38500
L63000 40000
" />
<path d="M27500 36500
L27500 39500
" />
</g>
<g style="fill:#840000; fill-opacity:0.0; 
stroke:#840000; stroke-width:60; stroke-opacity:1; 
stroke-linecap:round; stroke-linejoin:round;">
<text x="55900" y="25250"
textLength="5080" font-size="660" lengthAdjust="spacingAndGlyphs"
text-anchor="end" opacity="0">CIRCUIT-GND</text>
<path d="M51250 25170
L51220 25200
L51150 25220
L51100 25220
L51030 25200
L50980 25150
L50960 25100
L50940 25010
L50940 24940
L50960 24840
L50980 24790
L51030 24750
L51100 24720
L51150 24720
L51220 24750
L51250 24770
" />
<path d="M51460 25220
L51460 24720
" />
<path d="M51980 25220
L51820 24980
" />
<path d="M51700 25220
L51700 24720
L51890 24720
L51940 24750
L51960 24770
L51980 24820
L51980 24890
L51960 24940
L51940 24960
L51890 24980
L51700 24980
" />
<path d="M52480 25170
L52460 25200
L52390 25220
L52340 25220
L52270 25200
L52220 25150
L52200 25100
L52170 25010
L52170 24940
L52200 24840
L52220 24790
L52270 24750
L52340 24720
L52390 24720
L52460 24750
L52480 24770
" />
<path d="M52700 24720
L52700 25130
L52720 25170
L52750 25200
L52790 25220
L52890 25220
L52940 25200
L52960 25170
L52980 25130
L52980 24720
" />
<path d="M53220 25220
L53220 24720
" />
<path d="M53390 24720
L53670 24720
" />
<path d="M53530 25220
L53530 24720
" />
<path d="M53840 25030
L54220 25030
" />
<path d="M54720 24750
L54670 24720
L54600 24720
L54530 24750
L54480 24790
L54460 24840
L54440 24940
L54440 25010
L54460 25100
L54480 25150
L54530 25200
L54600 25220
L54650 25220
L54720 25200
L54750 25170
L54750 25010
L54650 25010
" />
<path d="M54960 25220
L54960 24720
L55250 25220
L55250 24720
" />
<path d="M55480 25220
L55480 24720
L55600 24720
L55670 24750
L55720 24790
L55750 24840
L55770 24940
L55770 25010
L55750 25100
L55720 25150
L55670 25200
L55600 25220
L55480 25220
" />
</g>
<g style="fill:#840000; fill-opacity:0.0; 
stroke:#840000; stroke-width:100; stroke-opacity:1; 
stroke-linecap:round; stroke-linejoin:round;">
<path style="fill:#840000; fill-opacity:0.0; 
stroke:#840000; stroke-width:100; stroke-opacity:1; 
stroke-linecap:round; stroke-linejoin:round;fill:none"
d="M 56000,25000
56000,24560
50750,24560
50750,25000
50750,25440
56000,25440
Z" /> 
</g>
<g style="fill:#840000; fill-opacity:0.0; 
stroke:#840000; stroke-width:60; stroke-opacity:1; 
stroke-linecap:round; stroke-linejoin:round;">
<text x="41600" y="25250"
textLength="4460" font-size="660" lengthAdjust="spacingAndGlyphs"
text-anchor="start" opacity="0">CIRCUIT-9V</text>
<path d="M42030 25170
L42010 25200
L41930 25220
L41890 25220
L41820 25200
L41770 25150
L41740 25100
L41720 25010
L41720 24940
L41740 24840
L41770 24790
L41820 24750
L41890 24720
L41930 24720
L42010 24750
L42030 24770
" />
<path d="M42240 25220
L42240 24720
" />
<path d="M42770 25220
L42600 24980
" />
<path d="M42480 25220
L42480 24720
L42670 24720
L42720 24750
L42740 24770
L42770 24820
L42770 24890
L42740 24940
L42720 24960
L42670 24980
L42480 24980
" />
<path d="M43270 25170
L43240 25200
L43170 25220
L43130 25220
L43050 25200
L43010 25150
L42980 25100
L42960 25010
L42960 24940
L42980 24840
L43010 24790
L43050 24750
L43130 24720
L43170 24720
L43240 24750
L43270 24770
" />
<path d="M43480 24720
L43480 25130
L43510 25170
L43530 25200
L43580 25220
L43670 25220
L43720 25200
L43740 25170
L43770 25130
L43770 24720
" />
<path d="M44010 25220
L44010 24720
" />
<path d="M44170 24720
L44460 24720
" />
<path d="M44320 25220
L44320 24720
" />
<path d="M44630 25030
L45010 25030
" />
<path d="M45270 25220
L45360 25220
L45410 25200
L45430 25170
L45480 25100
L45510 25010
L45510 24820
L45480 24770
L45460 24750
L45410 24720
L45320 24720
L45270 24750
L45240 24770
L45220 24820
L45220 24940
L45240 24980
L45270 25010
L45320 25030
L45410 25030
L45460 25010
L45480 24980
L45510 24940
" />
<path d="M45650 24720
L45820 25220
L45980 24720
" />
</g>
<g style="fill:#840000; fill-opacity:0.0; 
stroke:#840000; stroke-width:100; stroke-opacity:1; 
stroke-linecap:round; stroke-linejoin:round;">
<path style="fill:#840000; fill-opacity:0.0; 
stroke:#840000; stroke-width:100; stroke-opacity:1; 
stroke-linecap:round; stroke-linejoin:round;fill:none"
d="M 41500,25000
41500,25440
46130,25440
46130,25000
46130,24560
41500,24560
Z" /> 
</g>
<g style="fill:#840000; fill-opacity:0.0; 
stroke:#840000; stroke-width:60; stroke-opacity:1; 
stroke-linecap:round; stroke-linejoin:round;">
<text x="55900" y="36750"
textLength="4990" font-size="660" lengthAdjust="spacingAndGlyphs"
text-anchor="end" opacity="0">CIRCUIT-OUT</text>
<path d="M51340 36670
L51320 36700
L51250 36720
L51200 36720
L51130 36700
L51080 36650
L51060 36600
L51030 36510
L51030 36440
L51060 36340
L51080 36290
L51130 36250
L51200 36220
L51250 36220
L51320 36250
L51340 36270
" />
<path d="M51560 36720
L51560 36220
" />
<path d="M52080 36720
L51910 36480
" />
<path d="M51790 36720
L51790 36220
L51980 36220
L52030 36250
L52060 36270
L52080 36320
L52080 36390
L52060 36440
L52030 36460
L51980 36480
L51790 36480
" />
<path d="M52580 36670
L52560 36700
L52480 36720
L52440 36720
L52370 36700
L52320 36650
L52290 36600
L52270 36510
L52270 36440
L52290 36340
L52320 36290
L52370 36250
L52440 36220
L52480 36220
L52560 36250
L52580 36270
" />
<path d="M52790 36220
L52790 36630
L52820 36670
L52840 36700
L52890 36720
L52980 36720
L53030 36700
L53060 36670
L53080 36630
L53080 36220
" />
<path d="M53320 36720
L53320 36220
" />
<path d="M53480 36220
L53770 36220
" />
<path d="M53630 36720
L53630 36220
" />
<path d="M53940 36530
L54320 36530
" />
<path d="M54650 36220
L54750 36220
L54790 36250
L54840 36290
L54870 36390
L54870 36550
L54840 36650
L54790 36700
L54750 36720
L54650 36720
L54600 36700
L54560 36650
L54530 36550
L54530 36390
L54560 36290
L54600 36250
L54650 36220
" />
<path d="M55080 36220
L55080 36630
L55100 36670
L55130 36700
L55170 36720
L55270 36720
L55320 36700
L55340 36670
L55370 36630
L55370 36220
" />
<path d="M55530 36220
L55820 36220
" />
<path d="M55670 36720
L55670 36220
" />
</g>
<g style="fill:#840000; fill-opacity:0.0; 
stroke:#840000; stroke-width:100; stroke-opacity:1; 
stroke-linecap:round; stroke-linejoin:round;">
<path style="fill:#840000; fill-opacity:0.0; 
stroke:#840000; stroke-width:100; stroke-opacity:1; 
stroke-linecap:round; stroke-linejoin:round;fill:none"
d="M 56000,36500
56000,36060
50840,36060
50840,36500
50840,36940
56000,36940
Z" /> 
</g>
<g style="fill:#840000; fill-opacity:0.0; 
stroke:#840000; stroke-width:60; stroke-opacity:1; 
stroke-linecap:round; stroke-linejoin:round;">
<text x="41600" y="36750"
textLength="4320" font-size="660" lengthAdjust="spacingAndGlyphs"
text-anchor="start" opacity="0">CIRCUIT-IN</text>
<path d="M42030 36670
L42010 36700
L41930 36720
L41890 36720
L41820 36700
L41770 36650
L41740 36600
L41720 36510
L41720 36440
L41740 36340
L41770 36290
L41820 36250
L41890 36220
L41930 36220
L42010 36250
L42030 36270
" />
<path d="M42240 36720
L42240 36220
" />
<path d="M42770 36720
L42600 36480
" />
<path d="M42480 36720
L42480 36220
L42670 36220
L42720 36250
L42740 36270
L42770 36320
L42770 36390
L42740 36440
L42720 36460
L42670 36480
L42480 36480
" />
<path d="M43270 36670
L43240 36700
L43170 36720
L43130 36720
L43050 36700
L43010 36650
L42980 36600
L42960 36510
L42960 36440
L42980 36340
L43010 36290
L43050 36250
L43130 36220
L43170 36220
L43240 36250
L43270 36270
" />
<path d="M43480 36220
L43480 36630
L43510 36670
L43530 36700
L43580 36720
L43670 36720
L43720 36700
L43740 36670
L43770 36630
L43770 36220
" />
<path d="M44010 36720
L44010 36220
" />
<path d="M44170 36220
L44460 36220
" />
<path d="M44320 36720
L44320 36220
" />
<path d="M44630 36530
L45010 36530
" />
<path d="M45240 36720
L45240 36220
" />
<path d="M45480 36720
L45480 36220
L45770 36720
L45770 36220
" />
</g>
<g style="fill:#840000; fill-opacity:0.0; 
stroke:#840000; stroke-width:100; stroke-opacity:1; 
stroke-linecap:round; stroke-linejoin:round;">
<path style="fill:#840000; fill-opacity:0.0; 
stroke:#840000; stroke-width:100; stroke-opacity:1; 
stroke-linecap:round; stroke-linejoin:round;fill:none"
d="M 41500,36500
41500,36940
45990,36940
45990,36500
45990,36060
41500,36060
Z" /> 
</g>
<g style="fill:#840000; fill-opacity:0.0; 
stroke:#840000; stroke-width:60; stroke-opacity:1; 
stroke-linecap:round; stroke-linejoin:round;">
</g>
<g style="fill:#0000C2; fill-opacity:0.0; 
stroke:#0000C2; stroke-width:60; stroke-opacity:1; 
stroke-linecap:round; stroke-linejoin:round;">
<text x="21500" y="20400"
textLength="5820" font-size="660" lengthAdjust="spacingAndGlyphs"
text-anchor="start" opacity="0">POWER SUPPLY</text>
<path d="M21640 20370
L21640 19870
L21830 19870
L21880 19900
L21910 19920
L21930 19970
L21930 20040
L21910 20090
L21880 20110
L21830 20130
L21640 20130
" />
<path d="M22240 19870
L22330 19870
L22380 19900
L22430 19940
L22450 20040
L22450 20200
L22430 20300
L22380 20350
L22330 20370
L22240 20370
L22190 20350
L22140 20300
L22120 20200
L22120 20040
L22140 19940
L22190 19900
L22240 19870
" />
<path d="M22620 19870
L22740 20370
L22830 20010
L22930 20370
L23050 19870
" />
<path d="M23240 20110
L23410 20110
" />
<path d="M23480 20370
L23240 20370
L23240 19870
L23480 19870
" />
<path d="M23980 20370
L23810 20130
" />
<path d="M23690 20370
L23690 19870
L23880 19870
L23930 19900
L23950 19920
L23980 19970
L23980 20040
L23950 20090
L23930 20110
L23880 20130
L23690 20130
" />
<path d="M24550 20350
L24620 20370
L24740 20370
L24790 20350
L24810 20320
L24830 20280
L24830 20230
L24810 20180
L24790 20160
L24740 20130
L24640 20110
L24600 20090
L24570 20060
L24550 20010
L24550 19970
L24570 19920
L24600 19900
L24640 19870
L24760 19870
L24830 19900
" />
<path d="M25050 19870
L25050 20280
L25070 20320
L25100 20350
L25140 20370
L25240 20370
L25290 20350
L25310 20320
L25330 20280
L25330 19870
" />
<path d="M25570 20370
L25570 19870
L25760 19870
L25810 19900
L25830 19920
L25860 19970
L25860 20040
L25830 20090
L25810 20110
L25760 20130
L25570 20130
" />
<path d="M26070 20370
L26070 19870
L26260 19870
L26310 19900
L26330 19920
L26360 19970
L26360 20040
L26330 20090
L26310 20110
L26260 20130
L26070 20130
" />
<path d="M26810 20370
L26570 20370
L26570 19870
" />
<path d="M27070 20130
L27070 20370
" />
<path d="M26910 19870
L27070 20130
L27240 19870
" />
<text x="46000" y="20400"
textLength="5960" font-size="660" lengthAdjust="spacingAndGlyphs"
text-anchor="start" opacity="0">EFFECT CIRCUIT</text>
<path d="M46140 20110
L46310 20110
" />
<path d="M46380 20370
L46140 20370
L46140 19870
L46380 19870
" />
<path d="M46760 20110
L46600 20110
" />
<path d="M46600 20370
L46600 19870
L46830 19870
" />
<path d="M47190 20110
L47030 20110
" />
<path d="M47030 20370
L47030 19870
L47260 19870
" />
<path d="M47450 20110
L47620 20110
" />
<path d="M47690 20370
L47450 20370
L47450 19870
L47690 19870
" />
<path d="M48190 20320
L48170 20350
L48100 20370
L48050 20370
L47980 20350
L47930 20300
L47910 20250
L47880 20160
L47880 20090
L47910 19990
L47930 19940
L47980 19900
L48050 19870
L48100 19870
L48170 19900
L48190 19920
" />
<path d="M48330 19870
L48620 19870
" />
<path d="M48480 20370
L48480 19870
" />
<path d="M49450 20320
L49430 20350
L49360 20370
L49310 20370
L49240 20350
L49190 20300
L49170 20250
L49140 20160
L49140 20090
L49170 19990
L49190 19940
L49240 19900
L49310 19870
L49360 19870
L49430 19900
L49450 19920
" />
<path d="M49670 20370
L49670 19870
" />
<path d="M50190 20370
L50030 20130
" />
<path d="M49910 20370
L49910 19870
L50100 19870
L50140 19900
L50170 19920
L50190 19970
L50190 20040
L50170 20090
L50140 20110
L50100 20130
L49910 20130
" />
<path d="M50690 20320
L50670 20350
L50600 20370
L50550 20370
L50480 20350
L50430 20300
L50410 20250
L50380 20160
L50380 20090
L50410 19990
L50430 19940
L50480 19900
L50550 19870
L50600 19870
L50670 19900
L50690 19920
" />
<path d="M50910 19870
L50910 20280
L50930 20320
L50950 20350
L51000 20370
L51100 20370
L51140 20350
L51170 20320
L51190 20280
L51190 19870
" />
<path d="M51430 20370
L51430 19870
" />
<path d="M51600 19870
L51880 19870
" />
<path d="M51740 20370
L51740 19870
" />
</g>
<g style="fill:#0000C2; fill-opacity:0.0; 
stroke:#0000C2; stroke-width:0; stroke-opacity:1; 
stroke-linecap:round; stroke-linejoin:round;">
</g>
<g style="fill:#008400; fill-opacity:0.0; 
stroke:#008400; stroke-width:0; stroke-opacity:1; 
stroke-linecap:round; stroke-linejoin:round;">
</g>
<g style="fill:#008400; fill-opacity:1.0; 
stroke:#008400; stroke-width:100; stroke-opacity:1; 
stroke-linecap:round; stroke-linejoin:round;">
<circle cx="39000" cy="25000" r="200" /> 
</g>
<g style="fill:#008400; fill-opacity:1.0; 
stroke:#008400; stroke-width:60; stroke-opacity:1; 
stroke-linecap:round; stroke-linejoin:round;">
</g>
<g style="fill:#000084; fill-opacity:1.0; 
stroke:#000084; stroke-width:60; stroke-opacity:1; 
stroke-linecap:round; stroke-linejoin:round;">
</g>
<g style="fill:#000084; fill-opacity:0.0; 
stroke:#000084; stroke-width:60; stroke-opacity:1; 
stroke-linecap:round; stroke-linejoin:round;">
<path d="M35760 26760
L36240 27240
" />
<path d="M36240 26760
L35760 27240
" />
</g> 
</svg>
